# xmcd
#
# Track frame offsets: 
#        150
#        16723
#        36006
#        49004
#        77748
#        90774
#        111540
#        126634
#        149730
#        172319
#        190670
#        210139
#        227007
#        251050
#        270921
#        286168
#        304566
#        333803
#
# Disc length: 4702 seconds
#
# Revision: 0
# Processed by: cddbd v1.5.2PL0 Copyright (c) Steve Scherf et al.
# Submitted via: ExactAudioCopy v0.95b4
#
DISCID=f0125c12
DTITLE=Various Artist - 2120 Michigan Avenue Chicago, Italia-Vol.2
DYEAR=1999
DGENRE=Blues
TTITLE0=New York Blues Ensemble and Dario Lombardo - C.C. Rider
TTITLE1=Jono Manson and Chicago Blues Revue - Fattening Frogs For Snakes
TTITLE2=Alex Schultz and Egidio "Juke" Ingala - I Had My Fun
TTITLE3=Phil Guy and Dario Lombardo - Same Thing
TTITLE4=Laura Fedele - I Just Wanna Make Love To You
TTITLE5=Eric Engerbretson and Andrea Scagliarini - Johnny B. Goode
TTITLE6=Oracle King and The Plantations - So Many Roads, So Many Trains
TTITLE7=Papa's Blues - Bring It On Home
TTITLE8=The Snakedoctors - Rockin' Daddy
TTITLE9=Bambi Fossati and Garybaldi - Mona
TTITLE10=Junior Pitta and Jungle Beat - Act Like You Love Me
TTITLE11=Dynamite Band - My Babe
TTITLE12=Travelin' Band - Before You Accuse Me
TTITLE13=Bad Influence - Evil
TTITLE14=Doppio Brodo Star - Diddie Wa Diddie
TTITLE15=Ernesto De Pascale and Jono Manson and Chicago Blue Revue - Moani
TTITLE15=n' Ad Midnite
TTITLE16=Harp Mama and The Grandfathers - Hoochie Coochie Man
TTITLE17=Angelo "Leadbelly" Rossi - Honey Bee
EXTD=
EXTT0=
EXTT1=
EXTT2=
EXTT3=
EXTT4=
EXTT5=
EXTT6=
EXTT7=
EXTT8=
EXTT9=
EXTT10=
EXTT11=
EXTT12=
EXTT13=
EXTT14=
EXTT15=
EXTT16=
EXTT17=
PLAYORDER=
